<?xml version="1.0" encoding="utf-8" ?>
<svg xmlns="http://www.w3.org/2000/svg" xmlns:xlink="http://www.w3.org/1999/xlink" width="102" height="16">
	<path fill="rgb(255,244,0)" stroke="none" transform="matrix(0.9989 0 0 0.9989 83.7386 0.745895)" d="M8.78747 13.2669L3.35651 16L4.39373 10.2111L-2.98023e-08 6.11146L6.07199 5.26687L8.78747 0L11.5029 5.26687L17.5749 6.11146L13.1812 10.2111L14.2184 16L8.78747 13.2669Z"/>
	<path fill="rgb(255,244,0)" stroke="none" transform="matrix(0.9989 0 0 0.9989 62.9911 0.745895)" d="M8.78747 13.2669L3.35651 16L4.39373 10.2111L-2.98023e-08 6.11146L6.07199 5.26687L8.78747 0L11.5029 5.26687L17.5749 6.11146L13.1812 10.2111L14.2184 16L8.78747 13.2669Z"/>
	<path fill="rgb(255,244,0)" stroke="none" transform="matrix(0.9989 0 0 0.9989 42.2435 0.745895)" d="M8.78747 13.2669L3.35651 16L4.39373 10.2111L-2.98023e-08 6.11146L6.07199 5.26687L8.78747 0L11.5029 5.26687L17.5749 6.11146L13.1812 10.2111L14.2184 16L8.78747 13.2669Z"/>
	<path fill="rgb(255,244,0)" stroke="none" transform="matrix(0.9989 0 0 0.9989 21.496 0.745895)" d="M8.78747 13.2669L3.35651 16L4.39373 10.2111L-2.98023e-08 6.11146L6.07199 5.26687L8.78747 0L11.5029 5.26687L17.5749 6.11146L13.1812 10.2111L14.2184 16L8.78747 13.2669Z"/>
	<path fill="rgb(255,244,0)" stroke="none" transform="matrix(0.9989 0 0 0.9989 0.748489 0.745895)" d="M8.78747 13.2669L3.35651 16L4.39373 10.2111L-2.98023e-08 6.11146L6.07199 5.26687L8.78747 0L11.5029 5.26687L17.5749 6.11146L13.1812 10.2111L14.2184 16L8.78747 13.2669Z"/>
</svg>
